<svg id="Layer_1" data-name="Layer 1" xmlns="http://www.w3.org/2000/svg" viewBox="0 0 180 180"><defs><style>.cls-1{fill:#0ac7d9;}</style></defs><title>IR</title><path class="cls-1" d="M90,20.12A69.17,69.17,0,0,0,18.94,87.35q0,.75,0,1.49h0a71.08,71.08,0,1,0,142.17,0h0A68.49,68.49,0,0,0,92.87,20.07Q91.43,20.07,90,20.12ZM103.29,102a17.12,17.12,0,0,1-24.11,1.24c-7.21-6-25.46-45.74-25.46-45.74a362.74,362.74,0,0,1,48.22,21.63,15.66,15.66,0,0,1,2.08,22Q103.67,101.62,103.29,102Z"/><circle class="cls-1" cx="91.24" cy="91.21" r="8.45"/></svg>