<?xml version="1.0" encoding="utf-8"?>
<!-- Generator: Adobe Illustrator 21.0.2, SVG Export Plug-In . SVG Version: 6.00 Build 0)  -->
<svg version="1.1" id="Layer_1" xmlns="http://www.w3.org/2000/svg" xmlns:xlink="http://www.w3.org/1999/xlink" x="0px" y="0px"
	 viewBox="0 0 41.5 41.5" style="enable-background:new 0 0 41.5 41.5;" xml:space="preserve">
<path fill="#fff" d="M30.8,4H10.7C7,4,4,7,4,10.7v20.2c0,3.7,3,6.7,6.7,6.7h20.2c3.7,0,6.7-3,6.7-6.7V10.7C37.6,7,34.5,4,30.8,4z
	 M17.2,26.4L17,30.7c0,0.2-0.1,0.3-0.3,0.3c-0.1,0-0.3-0.1-0.3-0.3l-0.2-4.3h-0.3l-0.2,4.3c0,0.2-0.1,0.3-0.3,0.3
	c-0.1,0-0.3-0.1-0.3-0.3l-0.2-4.3h-0.8l0.8-4.8l-1.6,3.1c-0.1,0.1-0.2,0.2-0.4,0.1c-0.1-0.1-0.2-0.2-0.1-0.4c0,0,1.2-3.1,1.4-3.7
	c0.3-0.6,0.6-0.9,1.7-0.9h0.2c1.1,0,1.4,0.4,1.7,0.9c0.3,0.6,1.4,3.7,1.4,3.7c0.1,0.1,0,0.3-0.1,0.4c-0.1,0.1-0.3,0-0.4-0.1
	l-1.6-3.1l0.8,4.8H17.2z M14.9,18.4c0-0.6,0.5-1.2,1.2-1.2c0.6,0,1.2,0.5,1.2,1.2c0,0.6-0.5,1.2-1.2,1.2
	C15.4,19.6,14.9,19.1,14.9,18.4z M23,25.2c0,0-0.7,1-1,1.2c-0.4,0.2-0.4,0.1-0.4,0.4l0,0.9l0.1,2.7c0,0,0,0.2,0,0.2
	c0,0.1-0.1,0.2-0.3,0.2c-0.1,0-0.2-0.1-0.3-0.2c0,0-0.3-2.2-0.3-2.2s-0.3,2.2-0.3,2.2c0,0.1-0.1,0.2-0.3,0.2c-0.1,0-0.2-0.1-0.3-0.2
	c0,0,0-0.1,0-0.2l0.1-2.7l0-0.9c0-0.3,0-0.2-0.4-0.4c-0.4-0.2-1-1.2-1-1.2c0,0-0.1-0.1-0.1-0.2c0-0.1,0-0.2,0.1-0.2
	c0.1,0,0.1,0,0.2,0.1c0,0.1,0.8,1,1.3,1.1c0.1,0,0.3-0.1,0.6-0.1h0.1c0.3,0,0.5,0.1,0.6,0.1c0.5-0.1,1.3-1.1,1.3-1.1
	c0-0.1,0.1-0.1,0.2-0.1c0.1,0,0.2,0.1,0.1,0.2C23.1,25.1,23,25.2,23,25.2z M20,25.1c0-0.4,0.3-0.7,0.7-0.7c0.4,0,0.7,0.3,0.7,0.7
	c0,0.4-0.3,0.7-0.7,0.7C20.4,25.8,20,25.4,20,25.1z M28.5,24.9c-0.1,0.1-0.3,0-0.4-0.1l-1.4-3.1l-0.1,2.5h0l0.2,6.3
	c0,0.3-0.2,0.5-0.4,0.5c0,0,0,0,0,0c-0.2,0-0.4-0.2-0.5-0.4l-0.5-4.9l-0.5,4.9c0,0.2-0.2,0.4-0.5,0.4c0,0,0,0,0,0
	c-0.3,0-0.4-0.2-0.4-0.5l0.2-6.3l-0.1-2.5l-1.4,3.1c-0.1,0.1-0.2,0.2-0.4,0.1c-0.1-0.1-0.2-0.2-0.1-0.4c0,0,1-3.1,1.3-3.7
	c0.3-0.6,0.7-0.9,1.8-0.9h0.2c1.1,0,1.5,0.4,1.8,0.9c0.3,0.6,1.3,3.7,1.3,3.7C28.7,24.7,28.6,24.8,28.5,24.9z M24.3,18.4
	c0-0.6,0.5-1.2,1.2-1.2c0.6,0,1.2,0.5,1.2,1.2c0,0.6-0.5,1.2-1.2,1.2C24.8,19.6,24.3,19.1,24.3,18.4z M33.2,19.8
	c-0.2,0.3-0.6,0.5-0.9,0.5c-0.2,0-0.4-0.1-0.6-0.2l-10.3-7.1c-0.3-0.2-0.9-0.2-1.2,0L9.9,20.1c-0.5,0.4-1.2,0.2-1.5-0.3
	c-0.4-0.5-0.2-1.2,0.3-1.5l10.3-7.1c1.1-0.7,2.6-0.7,3.7,0l10.3,7.1C33.4,18.6,33.5,19.3,33.2,19.8z"/>
</svg>
