<?xml version="1.0" encoding="utf-8"?>
<!-- Generator: Adobe Illustrator 21.0.2, SVG Export Plug-In . SVG Version: 6.00 Build 0)  -->
<svg version="1.1" id="Layer_1" xmlns="http://www.w3.org/2000/svg" xmlns:xlink="http://www.w3.org/1999/xlink" x="0px" y="0px"
	 viewBox="0 0 41.5 41.5" style="enable-background:new 0 0 41.5 41.5;" xml:space="preserve">
<path fill="#fff" d="M30.8,4H10.7C7,4,4,7,4,10.7v20.2c0,3.7,3,6.7,6.7,6.7h20.2c3.7,0,6.7-3,6.7-6.7V10.7C37.6,7,34.5,4,30.8,4z
	 M10.9,32.2c-1.2-0.4-2.4-1.4-2.7-2.7l9.8-9.7l2.7,2.7L10.9,32.2z M26.8,22.2c0-0.1,0-0.1-0.1-0.2c0-0.1-0.1-0.2-0.1-0.3
	c0,0,0-0.1-0.1-0.1c-0.1-0.1-0.1-0.2-0.2-0.3c-0.1-0.2-0.3-0.3-0.6-0.4c-1.5-0.6-3,0.4-3.7,1c-0.2,0.1-0.4,0.4-0.4,0.4l-3.6-3.5
	c0,0,1.2-1.2,1.8-1.8c2.2-2.2,0.5-5.1-2.1-6.1c-0.6-0.2-1.2-0.3-1.9-0.4c-0.2,0-0.5,0-0.8,0c-0.7,0-0.6-0.9,0-1
	c0.4,0,0.7-0.1,0.9-0.1c3.5-0.3,7.3,0.9,10.8,4.5c0.3,0.3,0.5,0.5,0.8,0.8c0.8,3.4,3.6,3.6,3.6,3.6c-1.4,1.4-2.9,2.9-4.3,4.3
	C26.9,22.5,26.9,22.3,26.8,22.2z M33.1,20.6l-3.7,3.7c-0.4,0.4-1,0.4-1.4,0l-0.8-0.8l5-5.1l0.8,0.8C33.5,19.6,33.5,20.2,33.1,20.6z"
	/>
</svg>
