<?xml version="1.0" encoding="utf-8"?>
<!-- Generator: Adobe Illustrator 21.0.2, SVG Export Plug-In . SVG Version: 6.00 Build 0)  -->
<svg version="1.1" id="Layer_1" xmlns="http://www.w3.org/2000/svg" xmlns:xlink="http://www.w3.org/1999/xlink" x="0px" y="0px"
	 viewBox="0 0 41.5 41.5" style="enable-background:new 0 0 41.5 41.5;" xml:space="preserve">
<path fill="#fff" d="M19.9,16.4v11.8c0-0.6-4.9-3.8-10.5-0.3V14.2c1.1-0.6,2.6-1,4.3-1C17.2,13.2,19.9,14.3,19.9,16.4z M37.6,10.7
	v20.2c0,3.7-3,6.7-6.7,6.7H10.7c-3.7,0-6.7-3-6.7-6.7V10.7C4,7,7,4,10.7,4h20.2C34.5,4,37.6,7,37.6,10.7z M33.4,13
	c-6.6-2.9-11.8,0.2-12.5,0.8C20,13,15,10.1,8.2,13c0,0,0,0.9,0,2.1v14.1h10.4c0.4,0.3,1.2,0.5,2.2,0.5c1,0,1.8-0.2,2.2-0.5h10.4
	V15.2C33.4,13.9,33.4,13.1,33.4,13z M21.6,16.4v11.8c0-0.6,4.9-3.8,10.5-0.3V14.2c-1.1-0.6-2.6-1-4.3-1
	C24.4,13.2,21.6,14.3,21.6,16.4z"/>
</svg>
