<?xml version="1.0" encoding="utf-8"?>
<!-- Generator: Adobe Illustrator 21.0.2, SVG Export Plug-In . SVG Version: 6.00 Build 0)  -->
<svg version="1.1" id="Layer_1" xmlns="http://www.w3.org/2000/svg" xmlns:xlink="http://www.w3.org/1999/xlink" x="0px" y="0px"
	 viewBox="0 0 41.5 41.5" style="enable-background:new 0 0 41.5 41.5;" xml:space="preserve">
<path fill="#fff" d="M20.5,22v4.3c0,0.4-0.3,0.7-0.7,0.7h-3.7c-0.4,0-0.7-0.3-0.7-0.7V22c0-0.4,0.3-0.7,0.7-0.7h3.7
	C20.2,21.2,20.5,21.5,20.5,22z M37.6,10.7v20.2c0,3.7-3,6.7-6.7,6.7H10.7c-3.7,0-6.7-3-6.7-6.7V10.7C4,7,7,4,10.7,4h20.2
	C34.5,4,37.6,7,37.6,10.7z M21.6,20.4c0-0.3-0.2-0.6-0.6-0.7v-2.6c0.2-0.1,0.3-0.4,0.3-0.6c0-0.4-0.4-0.8-0.8-0.8
	c-0.4,0-0.8,0.4-0.8,0.8c0,0.3,0.1,0.5,0.3,0.6v2.6h-5c-0.4,0-0.7,0.3-0.7,0.7v12.2c0,0.4,0.3,0.7,0.7,0.7h5.8
	c0.4,0,0.7-0.3,0.7-0.7V20.4z M24.5,16.2c0-2.1-1.7-3.7-3.7-3.7c-2,0-3.7,1.7-3.7,3.7c0,0.2,0.2,0.4,0.4,0.4s0.4-0.2,0.4-0.4
	c0-1.6,1.3-2.8,2.8-2.8c1.6,0,2.8,1.3,2.8,2.8c0,0.2,0.2,0.4,0.4,0.4C24.3,16.6,24.5,16.4,24.5,16.2z M26.5,16.2
	c0-3.2-2.6-5.7-5.7-5.7c-3.2,0-5.7,2.6-5.7,5.7c0,0.2,0.2,0.4,0.4,0.4c0.2,0,0.4-0.2,0.4-0.4c0-2.7,2.2-4.8,4.8-4.8
	c2.7,0,4.8,2.2,4.8,4.8c0,0.2,0.2,0.4,0.4,0.4S26.5,16.4,26.5,16.2z M28.8,16.2c0-4.4-3.6-8-8-8c-4.4,0-8,3.6-8,8
	c0,0.2,0.2,0.4,0.4,0.4c0.2,0,0.4-0.2,0.4-0.4c0-3.9,3.2-7.1,7.1-7.1c3.9,0,7.1,3.2,7.1,7.1c0,0.2,0.2,0.4,0.4,0.4
	S28.8,16.4,28.8,16.2z"/>
</svg>
