<?xml version="1.0" encoding="utf-8"?>
<!-- Generator: Adobe Illustrator 21.0.2, SVG Export Plug-In . SVG Version: 6.00 Build 0)  -->
<svg version="1.1" xmlns="http://www.w3.org/2000/svg" xmlns:xlink="http://www.w3.org/1999/xlink" x="0px" y="0px" xml:space="preserve" id="icon-Wash-11" viewBox="0 0 40 40">
  <path fill="#0ac7d9" d="M29.687 3.855h-19.373c-3.566 0-6.458 2.892-6.458 6.458v19.47c0 3.566 2.892 6.458 6.458 6.458h19.47c3.566 0 6.458-2.892 6.458-6.458v-19.47c0-3.566-2.988-6.458-6.554-6.458zM25.542 29.398c0-0.675 2.024-5.687 2.506-6.361 0.482 0.867 2.506 5.687 2.506 6.361 0 3.663-5.012 3.663-5.012 0zM30.747 22.072h-5.205c-0.482 0-0.867-0.386-0.867-0.867 0-0.289 0.193-0.482 0.386-0.675-0.096-0.964-0.386-1.446-1.060-1.446-2.506 0-2.506 0-2.506 0-0.675 1.446-1.831 2.12-3.181 2.12s-2.313-0.675-2.988-2.024c-5.783 0-6.747 0-6.94 0v-5.012c4.241 0 5.687 0 6.265 0v-1.639c0-0.482 0.386-0.867 0.867-0.867h2.12v-1.060c-0.193-0.096-0.289-0.193-0.482-0.386-2.506 0-3.952 0-4.723 0-0.289 0.386-0.675 0.578-1.157 0.578-0.867 0-1.542-0.675-1.542-1.542s0.675-1.542 1.542-1.542c0.482 0 0.964 0.289 1.253 0.675 1.831 0 3.373 0 4.723 0 0.289-0.386 0.675-0.675 1.253-0.675 0.482 0 0.964 0.289 1.253 0.675 2.313 0 3.566 0 4.241 0 0.096-0.289 0.578-0.482 1.060-0.482 0.867 0 1.542 0.675 1.542 1.542s-0.675 1.542-1.542 1.542c-0.482 0-0.964-0.289-1.253-0.578-2.41 0-3.663 0-4.241 0-0.096 0.193-0.289 0.289-0.482 0.386v1.060h2.12c0.482 0 0.867 0.386 0.867 0.867v1.639c5.108 0 5.108 0 5.108 0 2.217 0 3.855 1.542 3.855 3.373 0 1.542 0 2.41 0 2.892 0.289 0.096 0.578 0.386 0.578 0.771 0 0.289-0.386 0.675-0.867 0.675z"></path>
</svg>
