<?xml version="1.0" encoding="UTF-8"?>
<svg width="90px" height="32px" viewBox="0 0 90 32" version="1.1" xmlns="http://www.w3.org/2000/svg" xmlns:xlink="http://www.w3.org/1999/xlink">
    <!-- Generator: Sketch 43.2 (39069) - http://www.bohemiancoding.com/sketch -->
    <title>IR </title>
    <desc>Created with Sketch.</desc>
    <defs></defs>
    <g id="Page-1" stroke="none" stroke-width="1" fill="none" fill-rule="evenodd">
        <g id="IR-" fill-rule="nonzero">
            <g id="logo" transform="translate(0.000000, 1.000000)">
                <rect id="Rectangle-path" fill="#3D5D77" x="0.3" y="14" width="89.4" height="17.3"></rect>
                <polygon id="Shape" fill="#3D5D77" points="0.3 0.9 2.7 0.9 2.7 12 0.3 12"></polygon>
                <polygon id="Shape" fill="#3D5D77" points="5.5 0.9 7.7 0.9 12.9 7.7 12.9 0.9 15.3 0.9 15.3 12 13.2 12 7.8 5 7.8 12 5.4 12 5.4 0.9"></polygon>
                <path d="M18,0.9 L22.3,0.9 C25.8,0.9 28.2,3.3 28.2,6.4 L28.2,6.4 C28.2,9.5 25.8,11.9 22.3,11.9 L18,11.9 L18,0.9 Z M22.3,9.8 C24.3,9.8 25.6,8.5 25.6,6.5 L25.6,6.5 C25.6,4.5 24.3,3.2 22.3,3.2 L20.4,3.2 L20.4,9.9 L22.3,9.9 L22.3,9.8 Z" id="Shape" fill="#3D5D77"></path>
                <polygon id="Shape" fill="#3D5D77" points="30.5 0.9 32.9 0.9 32.9 12 30.5 12"></polygon>
                <path d="M35.2,6.5 L35.2,6.5 C35.2,3.3 37.6,0.7 41,0.7 C43.1,0.7 44.3,1.4 45.4,2.4 L43.9,4.2 C42.9,3.4 42,3 40.9,3 C39,3 37.7,4.6 37.7,6.5 L37.7,6.5 C37.7,8.4 39,10 40.9,10 C42.2,10 42.9,9.5 43.8,8.7 L45.4,10.3 C44.3,11.5 43,12.3 40.9,12.3 C37.6,12.2 35.2,9.7 35.2,6.5 Z" id="Shape" fill="#3D5D77"></path>
                <path d="M50.7,0.8 L52.9,0.8 L57.7,12 L55.2,12 L54.2,9.5 L49.5,9.5 L48.5,12 L46,12 L50.7,0.8 Z M53.2,7.4 L51.7,3.8 L50.2,7.4 L53.2,7.4 Z" id="Shape" fill="#3D5D77"></path>
                <polygon id="Shape" fill="#3D5D77" points="60.5 3.2 57.1 3.2 57.1 0.9 66.3 0.9 66.3 3.1 63 3.1 63 12 60.6 12 60.6 3.2"></polygon>
                <path d="M80.2,0.9 L85.3,0.9 C86.7,0.9 87.8,1.3 88.5,2 C89.1,2.6 89.5,3.5 89.5,4.5 L89.5,4.5 C89.5,6.3 88.5,7.4 87.1,7.9 L89.8,11.9 L87,11.9 L84.6,8.4 L84.6,8.4 L82.7,8.4 L82.7,12 L80.3,12 L80.3,0.9 L80.2,0.9 Z M85.1,6.3 C86.3,6.3 87,5.7 87,4.7 L87,4.7 C87,3.7 86.3,3.1 85.1,3.1 L82.7,3.1 L82.7,6.3 L85.1,6.3 Z" id="Shape" fill="#3D5D77"></path>
                <g id="Group" transform="translate(12.000000, 17.000000)" fill="#FFFFFF">
                    <path d="M0,0.4 L4.1,0.4 C5.3,0.4 6.2,0.8 6.8,1.4 C7.3,1.9 7.5,2.5 7.5,3.2 L7.5,3.2 C7.5,4.8 6.3,5.7 4.7,6 L7.9,10.1 L7,10.1 L3.9,6.1 L3.9,6.1 L0.8,6.1 L0.8,10.1 L0,10.1 L0,0.4 Z M4,5.4 C5.6,5.4 6.8,4.6 6.8,3.2 L6.8,3.2 C6.8,1.9 5.8,1.1 4,1.1 L0.7,1.1 L0.7,5.5 L4,5.5 L4,5.4 Z" id="Shape"></path>
                    <polygon id="Shape" points="10 0.4 16.9 0.4 16.9 1.1 10.7 1.1 10.7 4.9 16.2 4.9 16.2 5.6 10.7 5.6 10.7 9.5 16.9 9.5 16.9 10.2 9.9 10.2 9.9 0.4"></polygon>
                    <path d="M18.8,5.3 L18.8,5.3 C18.8,2.7 20.7,0.3 23.6,0.3 C25.2,0.3 26.2,0.8 27.1,1.6 L26.6,2.1 C25.8,1.4 25,0.9 23.5,0.9 C21.1,0.9 19.5,2.9 19.5,5.2 L19.5,5.2 C19.5,7.7 21.1,9.6 23.6,9.6 C24.8,9.6 26,9.1 26.7,8.5 L26.7,5.7 L23.5,5.7 L23.5,5 L27.4,5 L27.4,8.7 C26.5,9.5 25.2,10.2 23.6,10.2 C20.6,10.3 18.8,8 18.8,5.3 Z" id="Shape"></path>
                    <polygon id="Shape" points="30.2 0.4 30.9 0.4 30.9 10.1 30.2 10.1"></polygon>
                    <path d="M33.3,8.7 L33.8,8.2 C34.9,9.2 35.8,9.6 37.3,9.6 C38.8,9.6 39.7,8.8 39.7,7.7 L39.7,7.7 C39.7,6.7 39.2,6.1 37,5.6 C34.7,5.1 33.7,4.3 33.7,2.9 L33.7,2.9 C33.7,1.5 35,0.4 36.8,0.4 C38.2,0.4 39.1,0.8 40.1,1.6 L39.6,2 C38.7,1.2 37.8,0.9 36.7,0.9 C35.3,0.9 34.3,1.7 34.3,2.7 L34.3,2.7 C34.3,3.7 34.8,4.3 37.1,4.8 C39.3,5.3 40.3,6.1 40.3,7.5 L40.3,7.5 C40.3,9.1 39,10.1 37.1,10.1 C35.6,10.2 34.4,9.7 33.3,8.7 Z" id="Shape"></path>
                    <polygon id="Shape" points="45.2 1.1 41.8 1.1 41.8 0.4 49.3 0.4 49.3 1.1 45.9 1.1 45.9 10.1 45.2 10.1"></polygon>
                    <path d="M51.5,0.4 L55.6,0.4 C56.8,0.4 57.7,0.8 58.3,1.4 C58.8,1.9 59,2.5 59,3.2 L59,3.2 C59,4.8 57.8,5.7 56.2,6 L59.4,10.1 L58.5,10.1 L55.4,6.1 L55.4,6.1 L52.3,6.1 L52.3,10.1 L51.6,10.1 L51.6,0.4 L51.5,0.4 Z M55.5,5.4 C57.1,5.4 58.3,4.6 58.3,3.2 L58.3,3.2 C58.3,1.9 57.3,1.1 55.5,1.1 L52.2,1.1 L52.2,5.5 L55.5,5.5 L55.5,5.4 Z" id="Shape"></path>
                    <polygon id="Shape" points="64.3 6.3 60.2 0.5 61 0.5 64.6 5.7 68.2 0.5 69.1 0.5 65 6.3 65 10.1 64.3 10.1"></polygon>
                </g>
                <path d="M73.1,0.7 C69.7,0.7 67.2,3.3 67.2,6.4 L67.2,6.4 C67.2,9.5 69.7,12.1 73.1,12.1 C76.5,12.1 79,9.5 79,6.4 L79,6.4 C79,3.3 76.6,0.7 73.1,0.7 Z" id="Shape" fill="#0AC7D9"></path>
                <path d="M74.1,5.5 C74.7,6 74.7,6.9 74.2,7.5 C73.7,8.1 72.8,8.1 72.2,7.6 C71.6,7.1 70.1,3.8 70.1,3.8 C70.1,3.8 73.6,5 74.1,5.5 Z" id="Shape" fill="#FFFFFF"></path>
                <circle id="Oval" fill="#0AC7D9" cx="73.2" cy="6.6" r="1"></circle>
            </g>
        </g>
    </g>
</svg>